<svg width="24" height="24" viewBox="0 0 24 24" fill="none">
  <path d="M8.41407 10.828H14.0561C14.1874 10.828 14.3174 10.8539 14.4388 10.9041C14.5601 10.9544 14.6703 11.028 14.7632 11.1209C14.856 11.2138 14.9297 11.324 14.98 11.4453C15.0302 11.5666 15.0561 11.6967 15.0561 11.828C15.0561 11.9593 15.0302 12.0894 14.98 12.2107C14.9297 12.332 14.856 12.4422 14.7632 12.5351C14.6703 12.628 14.5601 12.7016 14.4388 12.7519C14.3174 12.8021 14.1874 12.828 14.0561 12.828H8.41407L9.53607 13.95C9.72358 14.1376 9.82887 14.3921 9.82878 14.6574C9.82868 14.9226 9.72321 15.177 9.53557 15.3645C9.34793 15.552 9.09349 15.6573 8.82822 15.6572C8.56295 15.6571 8.30858 15.5516 8.12107 15.364L5.29307 12.536C5.19974 12.4433 5.12566 12.3331 5.07511 12.2117C5.02456 12.0903 4.99854 11.96 4.99854 11.8285C4.99854 11.697 5.02456 11.5667 5.07511 11.4453C5.12566 11.3239 5.19974 11.2137 5.29307 11.121L8.12007 8.293C8.30758 8.10536 8.56195 7.99989 8.82722 7.9998C9.09249 7.9997 9.34693 8.10499 9.53457 8.2925C9.72221 8.48001 9.82768 8.73438 9.82778 8.99965C9.82787 9.26492 9.72258 9.51936 9.53507 9.707L8.41407 10.828ZM18.0001 3C18.2653 3 18.5196 3.10536 18.7072 3.29289C18.8947 3.48043 19.0001 3.73478 19.0001 4V20C19.0001 20.2652 18.8947 20.5196 18.7072 20.7071C18.5196 20.8946 18.2653 21 18.0001 21C17.7349 21 17.4805 20.8946 17.293 20.7071C17.1054 20.5196 17.0001 20.2652 17.0001 20V4C17.0001 3.73478 17.1054 3.48043 17.293 3.29289C17.4805 3.10536 17.7349 3 18.0001 3V3Z" />
</svg>
