<svg width="72" height="72" viewBox="0 0 72 72" fill="none">
  <path class="border" fill-rule="evenodd" clip-rule="evenodd" d="M35.2004 65.5647C52.1386 65.5647 65.8697 51.909 65.8697 35.064C65.8697 18.2189 52.1386 4.56328 35.2004 4.56328C18.2623 4.56328 4.53123 18.2189 4.53123 35.064C4.53123 51.909 18.2623 65.5647 35.2004 65.5647ZM35.2004 68.9536C54.0206 68.9536 69.2773 53.7807 69.2773 35.064C69.2773 16.3472 54.0206 1.17432 35.2004 1.17432C16.3803 1.17432 1.12354 16.3472 1.12354 35.064C1.12354 53.7807 16.3803 68.9536 35.2004 68.9536Z" fill="#00AEC6" />
  <path class="path" fill-rule="evenodd" clip-rule="evenodd" d="M20.4 51.6C29.0156 60.2156 42.9844 60.2156 51.6 51.6C60.2156 42.9844 60.2156 29.0156 51.6 20.4C42.9844 11.7844 29.0156 11.7844 20.4 20.4L18 18C27.9411 8.05888 44.0589 8.05888 54 18C63.9411 27.9411 63.9411 44.0589 54 54C44.0589 63.9411 27.9411 63.9411 18 54L20.4 51.6Z" fill="#516d74" />
  <path class="path" fill-rule="evenodd" clip-rule="evenodd" d="M27.3509 42.9515C31.6587 47.2593 38.6431 47.2593 42.9509 42.9515L45.3509 45.3515C39.7176 50.9848 30.5842 50.9848 24.9509 45.3515C19.3176 39.7182 19.3176 30.5848 24.9509 24.9515C30.5842 19.3182 39.7176 19.3182 45.3509 24.9515L42.9509 27.3515C38.6431 23.0437 31.6587 23.0437 27.3509 27.3515C23.0431 31.6593 23.0431 38.6437 27.3509 42.9515Z" fill="#516d74" />
  <path class="dot" d="M38.5711 35.2509C38.5711 37.1122 37.0621 38.6211 35.2008 38.6211C33.3395 38.6211 31.8306 37.1122 31.8306 35.2509C31.8306 33.3895 33.3395 31.8806 35.2008 31.8806C37.0621 31.8806 38.5711 33.3895 38.5711 35.2509Z" fill="#fff" />
</svg>
