<svg width="24" height="24" viewBox="0 0 24 24" fill="none">
  <path d="M8.4 6.28571C6.8087 6.28571 5.28258 6.88775 4.15736 7.95939C3.03214 9.03103 2.4 10.4845 2.4 12C2.4 13.5155 3.03214 14.969 4.15736 16.0406C5.28258 17.1122 6.8087 17.7143 8.4 17.7143H15.6C17.1913 17.7143 18.7174 17.1122 19.8426 16.0406C20.9679 14.969 21.6 13.5155 21.6 12C21.6 10.4845 20.9679 9.03103 19.8426 7.95939C18.7174 6.88775 17.1913 6.28571 15.6 6.28571H8.4ZM8.4 4H15.6C17.8278 4 19.9644 4.84285 21.5397 6.34315C23.115 7.84344 24 9.87827 24 12C24 14.1217 23.115 16.1566 21.5397 17.6569C19.9644 19.1571 17.8278 20 15.6 20H8.4C6.17218 20 4.03561 19.1571 2.4603 17.6569C0.884997 16.1566 0 14.1217 0 12C0 9.87827 0.884997 7.84344 2.4603 6.34315C4.03561 4.84285 6.17218 4 8.4 4V4ZM8.4 16.5714C7.12696 16.5714 5.90606 16.0898 5.00589 15.2325C4.10571 14.3752 3.6 13.2124 3.6 12C3.6 10.7876 4.10571 9.62482 5.00589 8.76751C5.90606 7.9102 7.12696 7.42857 8.4 7.42857C9.67304 7.42857 10.8939 7.9102 11.7941 8.76751C12.6943 9.62482 13.2 10.7876 13.2 12C13.2 13.2124 12.6943 14.3752 11.7941 15.2325C10.8939 16.0898 9.67304 16.5714 8.4 16.5714V16.5714ZM8.4 14.2857C9.03652 14.2857 9.64697 14.0449 10.0971 13.6162C10.5471 13.1876 10.8 12.6062 10.8 12C10.8 11.3938 10.5471 10.8124 10.0971 10.3838C9.64697 9.9551 9.03652 9.71429 8.4 9.71429C7.76348 9.71429 7.15303 9.9551 6.70294 10.3838C6.25286 10.8124 6 11.3938 6 12C6 12.6062 6.25286 13.1876 6.70294 13.6162C7.15303 14.0449 7.76348 14.2857 8.4 14.2857V14.2857Z" />
</svg>
